<svg width="24" height="29" viewBox="0 0 24 29" fill="none" xmlns="http://www.w3.org/2000/svg">
<path d="M22 20.2188V23.8037C22.0011 24.1365 21.9441 24.4659 21.8325 24.7709C21.7209 25.0758 21.5573 25.3495 21.3521 25.5745C21.1468 25.7995 20.9046 25.9708 20.6407 26.0774C20.3769 26.184 20.0974 26.2236 19.82 26.1937C16.7428 25.7941 13.787 24.5376 11.19 22.5251C8.77382 20.6904 6.72533 18.2425 5.18999 15.3553C3.49997 12.2379 2.44824 8.68856 2.11999 4.99492C2.095 4.66447 2.12787 4.33142 2.21649 4.01698C2.30512 3.70255 2.44756 3.4136 2.63476 3.16855C2.82196 2.9235 3.0498 2.72772 3.30379 2.59365C3.55777 2.45959 3.83233 2.3902 4.10999 2.38989H7.10999C7.5953 2.38418 8.06579 2.58954 8.43376 2.96769C8.80173 3.34585 9.04207 3.87099 9.10999 4.44523C9.23662 5.59248 9.47144 6.71893 9.80999 7.80309C9.94454 8.2308 9.97366 8.69563 9.8939 9.14251C9.81415 9.58939 9.62886 9.99958 9.35999 10.3245L8.08999 11.8421C9.51355 14.8337 11.5864 17.3108 14.09 19.0119L15.36 17.4943C15.6319 17.173 15.9751 16.9516 16.3491 16.8563C16.7231 16.761 17.1121 16.7958 17.47 16.9566C18.3773 17.3611 19.3199 17.6417 20.28 17.793C20.7658 17.8749 21.2094 18.1673 21.5265 18.6146C21.8437 19.0618 22.0122 19.6328 22 20.2188Z" stroke="#4F4F51" stroke-width="2" stroke-linecap="round" stroke-linejoin="round"/>
</svg>
